<?xml version="1.0" encoding="UTF-8" standalone="no"?>
<!DOCTYPE svg PUBLIC "-//W3C//DTD SVG 1.1//EN"
 "http://www.w3.org/Graphics/SVG/1.1/DTD/svg11.dtd">
<!-- Generated by graphviz version 2.43.0 (0)
 -->
<!-- Title: %3 Pages: 1 -->
<svg width="311pt" height="436pt"
 viewBox="0.00 0.00 311.00 436.00" xmlns="http://www.w3.org/2000/svg" xmlns:xlink="http://www.w3.org/1999/xlink">
<g id="graph0" class="graph" transform="scale(1 1) rotate(0) translate(4 432)">
<title>%3</title>
<polygon fill="white" stroke="transparent" points="-4,4 -4,-432 307,-432 307,4 -4,4"/>
<!-- 139816851661424 -->
<g id="node1" class="node">
<title>139816851661424</title>
<polygon fill="#caff70" stroke="black" points="124.5,-31 70.5,-31 70.5,0 124.5,0 124.5,-31"/>
<text text-anchor="middle" x="97.5" y="-7" font-family="monospace" font-size="10.00"> ()</text>
</g>
<!-- 139816851653968 -->
<g id="node2" class="node">
<title>139816851653968</title>
<polygon fill="lightgrey" stroke="black" points="142,-86 53,-86 53,-67 142,-67 142,-86"/>
<text text-anchor="middle" x="97.5" y="-74" font-family="monospace" font-size="10.00">AddBackward0</text>
</g>
<!-- 139816851653968&#45;&gt;139816851661424 -->
<g id="edge15" class="edge">
<title>139816851653968&#45;&gt;139816851661424</title>
<path fill="none" stroke="black" d="M97.5,-66.79C97.5,-60.07 97.5,-50.4 97.5,-41.34"/>
<polygon fill="black" stroke="black" points="101,-41.19 97.5,-31.19 94,-41.19 101,-41.19"/>
</g>
<!-- 139816851654064 -->
<g id="node3" class="node">
<title>139816851654064</title>
<polygon fill="lightgrey" stroke="black" points="89,-196 0,-196 0,-177 89,-177 89,-196"/>
<text text-anchor="middle" x="44.5" y="-184" font-family="monospace" font-size="10.00">LogBackward0</text>
</g>
<!-- 139816851654064&#45;&gt;139816851653968 -->
<g id="edge1" class="edge">
<title>139816851654064&#45;&gt;139816851653968</title>
<path fill="none" stroke="black" d="M48.84,-176.66C57.54,-158.93 77.27,-118.73 88.76,-95.32"/>
<polygon fill="black" stroke="black" points="91.99,-96.68 93.25,-86.16 85.7,-93.59 91.99,-96.68"/>
</g>
<!-- 139816851653728 -->
<g id="node4" class="node">
<title>139816851653728</title>
<polygon fill="lightgrey" stroke="black" points="89,-306 0,-306 0,-287 89,-287 89,-306"/>
<text text-anchor="middle" x="44.5" y="-294" font-family="monospace" font-size="10.00">ExpBackward0</text>
</g>
<!-- 139816851653728&#45;&gt;139816851654064 -->
<g id="edge2" class="edge">
<title>139816851653728&#45;&gt;139816851654064</title>
<path fill="none" stroke="black" d="M44.5,-286.66C44.5,-269.17 44.5,-229.8 44.5,-206.27"/>
<polygon fill="black" stroke="black" points="48,-206.16 44.5,-196.16 41,-206.16 48,-206.16"/>
</g>
<!-- 139816851654160 -->
<g id="node5" class="node">
<title>139816851654160</title>
<polygon fill="lightgrey" stroke="black" points="202,-361 101,-361 101,-342 202,-342 202,-361"/>
<text text-anchor="middle" x="151.5" y="-349" font-family="monospace" font-size="10.00">AccumulateGrad</text>
</g>
<!-- 139816851654160&#45;&gt;139816851653728 -->
<g id="edge3" class="edge">
<title>139816851654160&#45;&gt;139816851653728</title>
<path fill="none" stroke="black" d="M134.31,-341.98C117.25,-333.54 90.87,-320.47 71.1,-310.68"/>
<polygon fill="black" stroke="black" points="72.52,-307.47 62,-306.17 69.41,-313.75 72.52,-307.47"/>
</g>
<!-- 139816851654400 -->
<g id="node10" class="node">
<title>139816851654400</title>
<polygon fill="lightgrey" stroke="black" points="196,-306 107,-306 107,-287 196,-287 196,-306"/>
<text text-anchor="middle" x="151.5" y="-294" font-family="monospace" font-size="10.00">SinBackward0</text>
</g>
<!-- 139816851654160&#45;&gt;139816851654400 -->
<g id="edge9" class="edge">
<title>139816851654160&#45;&gt;139816851654400</title>
<path fill="none" stroke="black" d="M151.5,-341.75C151.5,-334.8 151.5,-324.85 151.5,-316.13"/>
<polygon fill="black" stroke="black" points="155,-316.09 151.5,-306.09 148,-316.09 155,-316.09"/>
</g>
<!-- 139816851654448 -->
<g id="node12" class="node">
<title>139816851654448</title>
<polygon fill="lightgrey" stroke="black" points="303,-306 214,-306 214,-287 303,-287 303,-306"/>
<text text-anchor="middle" x="258.5" y="-294" font-family="monospace" font-size="10.00">CosBackward0</text>
</g>
<!-- 139816851654160&#45;&gt;139816851654448 -->
<g id="edge13" class="edge">
<title>139816851654160&#45;&gt;139816851654448</title>
<path fill="none" stroke="black" d="M168.69,-341.98C185.75,-333.54 212.13,-320.47 231.9,-310.68"/>
<polygon fill="black" stroke="black" points="233.59,-313.75 241,-306.17 230.48,-307.47 233.59,-313.75"/>
</g>
<!-- 139816956595552 -->
<g id="node6" class="node">
<title>139816956595552</title>
<polygon fill="lightblue" stroke="black" points="178.5,-428 124.5,-428 124.5,-397 178.5,-397 178.5,-428"/>
<text text-anchor="middle" x="151.5" y="-404" font-family="monospace" font-size="10.00"> ()</text>
</g>
<!-- 139816956595552&#45;&gt;139816851654160 -->
<g id="edge4" class="edge">
<title>139816956595552&#45;&gt;139816851654160</title>
<path fill="none" stroke="black" d="M151.5,-396.92C151.5,-389.22 151.5,-379.69 151.5,-371.43"/>
<polygon fill="black" stroke="black" points="155,-371.25 151.5,-361.25 148,-371.25 155,-371.25"/>
</g>
<!-- 139816851654016 -->
<g id="node7" class="node">
<title>139816851654016</title>
<polygon fill="lightgrey" stroke="black" points="191,-141 96,-141 96,-122 191,-122 191,-141"/>
<text text-anchor="middle" x="143.5" y="-129" font-family="monospace" font-size="10.00">SqrtBackward0</text>
</g>
<!-- 139816851654016&#45;&gt;139816851653968 -->
<g id="edge5" class="edge">
<title>139816851654016&#45;&gt;139816851653968</title>
<path fill="none" stroke="black" d="M135.9,-121.75C129.34,-114.18 119.68,-103.05 111.69,-93.84"/>
<polygon fill="black" stroke="black" points="114.15,-91.35 104.95,-86.09 108.87,-95.94 114.15,-91.35"/>
</g>
<!-- 139816851654256 -->
<g id="node8" class="node">
<title>139816851654256</title>
<polygon fill="lightgrey" stroke="black" points="196,-196 107,-196 107,-177 196,-177 196,-196"/>
<text text-anchor="middle" x="151.5" y="-184" font-family="monospace" font-size="10.00">AddBackward0</text>
</g>
<!-- 139816851654256&#45;&gt;139816851654016 -->
<g id="edge6" class="edge">
<title>139816851654256&#45;&gt;139816851654016</title>
<path fill="none" stroke="black" d="M150.18,-176.75C149.13,-169.8 147.63,-159.85 146.31,-151.13"/>
<polygon fill="black" stroke="black" points="149.75,-150.45 144.8,-141.09 142.83,-151.5 149.75,-150.45"/>
</g>
<!-- 139816851653680 -->
<g id="node9" class="node">
<title>139816851653680</title>
<polygon fill="lightgrey" stroke="black" points="196,-251 107,-251 107,-232 196,-232 196,-251"/>
<text text-anchor="middle" x="151.5" y="-239" font-family="monospace" font-size="10.00">MulBackward0</text>
</g>
<!-- 139816851653680&#45;&gt;139816851654256 -->
<g id="edge7" class="edge">
<title>139816851653680&#45;&gt;139816851654256</title>
<path fill="none" stroke="black" d="M151.5,-231.75C151.5,-224.8 151.5,-214.85 151.5,-206.13"/>
<polygon fill="black" stroke="black" points="155,-206.09 151.5,-196.09 148,-206.09 155,-206.09"/>
</g>
<!-- 139816851654400&#45;&gt;139816851653680 -->
<g id="edge8" class="edge">
<title>139816851654400&#45;&gt;139816851653680</title>
<path fill="none" stroke="black" d="M146.33,-286.75C144.84,-279.8 144.4,-269.85 145.02,-261.13"/>
<polygon fill="black" stroke="black" points="148.51,-261.47 146.37,-251.09 141.57,-260.53 148.51,-261.47"/>
</g>
<!-- 139816851654400&#45;&gt;139816851653680 -->
<g id="edge10" class="edge">
<title>139816851654400&#45;&gt;139816851653680</title>
<path fill="none" stroke="black" d="M156.67,-286.75C158.16,-279.8 158.6,-269.85 157.98,-261.13"/>
<polygon fill="black" stroke="black" points="161.43,-260.53 156.63,-251.09 154.49,-261.47 161.43,-260.53"/>
</g>
<!-- 139816851654208 -->
<g id="node11" class="node">
<title>139816851654208</title>
<polygon fill="lightgrey" stroke="black" points="303,-251 214,-251 214,-232 303,-232 303,-251"/>
<text text-anchor="middle" x="258.5" y="-239" font-family="monospace" font-size="10.00">MulBackward0</text>
</g>
<!-- 139816851654208&#45;&gt;139816851654256 -->
<g id="edge11" class="edge">
<title>139816851654208&#45;&gt;139816851654256</title>
<path fill="none" stroke="black" d="M241.31,-231.98C224.25,-223.54 197.87,-210.47 178.1,-200.68"/>
<polygon fill="black" stroke="black" points="179.52,-197.47 169,-196.17 176.41,-203.75 179.52,-197.47"/>
</g>
<!-- 139816851654448&#45;&gt;139816851654208 -->
<g id="edge12" class="edge">
<title>139816851654448&#45;&gt;139816851654208</title>
<path fill="none" stroke="black" d="M253.33,-286.75C251.84,-279.8 251.4,-269.85 252.02,-261.13"/>
<polygon fill="black" stroke="black" points="255.51,-261.47 253.37,-251.09 248.57,-260.53 255.51,-261.47"/>
</g>
<!-- 139816851654448&#45;&gt;139816851654208 -->
<g id="edge14" class="edge">
<title>139816851654448&#45;&gt;139816851654208</title>
<path fill="none" stroke="black" d="M263.67,-286.75C265.16,-279.8 265.6,-269.85 264.98,-261.13"/>
<polygon fill="black" stroke="black" points="268.43,-260.53 263.63,-251.09 261.49,-261.47 268.43,-260.53"/>
</g>
</g>
</svg>
