<?xml version="1.0" encoding="UTF-8" standalone="no"?>
<svg xmlns:svg="http://www.w3.org/2000/svg"  xmlns="http://www.w3.org/2000/svg"
	version="1.0" width="750px" height="700px" viewBox="0 0 750 700">
	<defs>
	</defs>
	<g style="stroke:#000000;stroke-width:4;stroke-linecap:butt;stroke-linejoin:miter;fill-rule:evenodd;">
		<path style="fill:#dddddd;" d="M 237.6,188.8 C 279.5,201.3 335.4,235 386,263.1 461.5,305 537.6,335.2 636.9,303.3 L 638,571.3 237.6,570.2 237.6,188.8 z" />
		<path style="fill:#000000;" d="M 46.88,571.3 687.3,572.5" />
		<path style="fill:#000000;" d="M 107.2,636.7 106,37.33 106,59.37" />
		<path style="fill:none;   " d="M 636.3,303.3 C 668.1,293.8 686,287 713.7,274.6" />
		<path style="fill:none;   "  d="M 11.22,241.4 C 73.07,198.8 137.7,161.3 238,188.7" />
		<path style="fill:#000000;stroke-width:1;" d="M 104.1,63.81 86.74,80.54 105.9,12.39 125.1,79.92 108.4,63.81 104.1,63.81 z" />
		<path style="fill:#000000;stroke-width:1;" d="M 678.4,570.5 661.8,553 729.8,572.7 662.1,591.4 678.4,574.8 678.4,570.5 z" />
	</g>
	<g style="font-size:70px;font-style:italic;font-weight:bold;text-anchor:start;fill:#000000;stroke:none;font-family:Times New Roman;">
		<text x="213" y="633">a</text>
		<text x="609" y="638">b</text>
		<text x="682" y="633">x</text>
		<text x="146" y="53" >y</text>
		<text x="439" y="247">f(x)</text>
		<text x="411" y="460">S</text>
	</g>
</svg>
