<?xml version="1.0" standalone="no"?>
<!DOCTYPE svg PUBLIC "-//W3C//DTD SVG 20010904//EN"
 "http://www.w3.org/TR/2001/REC-SVG-20010904/DTD/svg10.dtd">
<svg version="1.0" xmlns="http://www.w3.org/2000/svg"
 width="350.000000pt" height="233.000000pt" viewBox="0 0 350.000000 233.000000"
 preserveAspectRatio="xMidYMid meet">

<g transform="translate(0.000000,233.000000) scale(0.100000,-0.100000)"
fill="#000000" stroke="none">
<path d="M1856 2315 c-3 -9 -18 -15 -36 -15 -22 0 -33 -6 -40 -22 l-9 -23 0
23 c-1 22 -4 22 -83 20 -83 -3 -108 -16 -66 -35 15 -6 18 -12 10 -17 -7 -4
-12 -2 -12 3 0 6 -7 11 -15 11 -8 0 -15 9 -15 20 0 25 -17 26 -23 3 -4 -17 -5
-17 -6 0 -1 14 -10 17 -50 17 -42 0 -49 -3 -55 -22 -14 -54 5 -69 23 -18 5 17
12 30 15 30 3 0 3 -13 0 -30 -4 -18 -2 -30 4 -30 5 0 15 14 21 30 5 17 12 30
14 30 2 0 2 -13 -1 -30 -3 -18 0 -30 7 -30 6 0 11 6 11 13 0 8 4 7 10 -3 8
-12 11 -13 19 -1 6 9 11 10 15 2 4 -6 25 -10 46 -9 33 1 41 5 49 30 13 37 22
36 15 -2 -4 -18 -2 -30 4 -30 5 0 15 14 21 30 5 17 12 30 14 30 2 0 2 -13 -1
-30 -4 -29 11 -42 21 -17 4 10 6 10 6 0 1 -9 19 -13 55 -13 51 0 53 1 49 24
-3 13 0 26 5 30 11 7 4 46 -8 46 -4 0 -10 -7 -14 -15z m-195 -43 c-7 -2 -18 1
-23 6 -8 8 -4 9 13 5 13 -4 18 -8 10 -11z m159 8 c0 -5 -7 -10 -16 -10 -8 0
-12 5 -9 10 3 6 10 10 16 10 5 0 9 -4 9 -10z m27 -12 c-3 -8 -6 -5 -6 6 -1 11
2 17 5 13 3 -3 4 -12 1 -19z"/>
<path d="M1960 2312 c0 -15 -6 -18 -28 -14 -32 4 -56 -17 -50 -45 2 -14 13
-18 45 -19 38 -2 43 1 52 27 13 38 22 37 14 -2 -5 -25 -3 -31 8 -27 21 7 25
68 5 68 -9 0 -16 7 -16 15 0 8 -7 15 -15 15 -8 0 -15 -8 -15 -18z m-21 -53
c-24 -18 -36 -11 -26 16 4 8 14 11 28 8 l22 -6 -24 -18z"/>
<path d="M840 2123 l0 -56 -27 24 c-28 24 -28 23 1 -8 31 -35 40 -34 56 0 11
21 11 21 -4 3 -15 -19 -16 -17 -16 32 l0 52 835 0 835 0 0 -52 0 -51 -27 24
c-28 24 -28 23 1 -8 31 -35 40 -34 56 0 11 21 11 21 -4 3 -15 -19 -16 -16 -16
37 l0 57 -845 0 -845 0 0 -57z"/>
<path d="M2240 1940 l0 -60 33 0 c38 0 57 15 57 45 0 26 -18 45 -42 45 -10 0
-18 7 -18 15 0 8 -7 15 -15 15 -12 0 -15 -13 -15 -60z m58 -21 c-1 -13 -7 -23
-13 -22 -13 3 -18 30 -11 50 10 24 29 1 24 -28z"/>
<path d="M2415 1950 c-16 -31 -19 -58 -9 -84 12 -30 24 -16 24 27 0 23 7 53
16 65 13 20 13 22 0 22 -9 0 -22 -13 -31 -30z"/>
<path d="M2477 1946 c-31 -40 -33 -46 -12 -46 8 0 15 -4 15 -10 0 -11 30 -14
31 -2 3 37 10 76 14 80 10 10 5 -80 -5 -99 -16 -28 6 -24 25 5 10 15 15 40 13
63 -3 32 -7 38 -29 41 -20 2 -32 -5 -52 -32z"/>
<path d="M330 1956 c-10 -13 -10 -16 4 -16 9 0 16 5 16 10 0 6 5 10 10 10 20
0 9 -21 -16 -30 -41 -16 -28 -44 22 -48 l40 -3 -5 43 c-5 37 -10 43 -32 46
-14 2 -31 -4 -39 -12z m40 -45 c0 -6 -4 -13 -10 -16 -5 -3 -10 1 -10 9 0 9 5
16 10 16 6 0 10 -4 10 -9z"/>
<path d="M545 1940 c-16 -31 -19 -58 -9 -84 12 -30 24 -16 24 27 0 23 7 53 16
65 13 20 13 22 0 22 -9 0 -22 -13 -31 -30z"/>
<path d="M596 1936 c-30 -40 -32 -46 -11 -46 8 0 15 -4 15 -10 0 -5 7 -10 15
-10 13 0 19 11 17 31 -1 4 3 21 8 38 12 43 -10 41 -44 -3z"/>
<path d="M807 1964 c-12 -12 -8 -24 7 -24 8 0 17 6 19 13 3 7 6 5 6 -5 1 -10
-4 -18 -10 -18 -8 0 -7 -5 1 -15 10 -12 10 -19 2 -27 -9 -9 -12 -9 -12 0 0 7
-7 12 -16 12 -9 0 -14 -6 -11 -12 2 -7 17 -13 33 -13 25 0 29 4 29 27 1 15 4
30 8 34 11 11 8 -55 -3 -77 -16 -28 6 -24 25 5 10 15 15 40 13 63 -3 37 -4 38
-44 41 -22 1 -43 -1 -47 -4z"/>
<path d="M689 1922 c7 -12 5 -22 -5 -33 -14 -16 -12 -17 19 -17 29 0 34 3 30
19 -3 11 0 25 6 33 10 12 6 14 -24 14 -29 0 -33 -3 -26 -16z"/>
<path d="M45 1821 c-7 -13 25 -34 194 -127 l144 -79 -114 -3 -114 -3 -78 -77
-77 -77 0 -602 0 -603 253 0 252 0 -189 -105 c-209 -116 -221 -124 -208 -137
6 -6 100 41 235 116 l225 126 174 0 173 0 78 78 77 77 0 62 0 61 317 176 317
177 794 -442 c541 -300 797 -438 804 -431 14 14 63 -14 -809 469 -413 230
-749 421 -745 425 4 4 105 61 224 127 l217 121 309 0 310 0 71 79 71 79 0 133
1 134 172 94 c226 124 252 140 239 153 -6 6 -79 -29 -219 -106 l-209 -116
-585 0 -584 0 -78 -78 -77 -77 0 -148 0 -147 258 0 257 0 -207 -115 c-114 -63
-211 -115 -215 -115 -4 0 -147 78 -318 173 l-310 173 -3 172 -2 172 -308 0
-307 0 -198 110 c-109 61 -200 110 -202 110 -2 0 -6 -4 -10 -9z m379 -228 c3
-4 -22 -35 -56 -70 l-62 -63 -145 0 -145 0 69 70 69 70 132 0 c72 0 134 -3
138 -7z m280 -43 l-50 -51 -90 50 -89 51 140 0 140 0 -51 -50z m353 -112 c2
-178 9 -168 -84 -115 l-53 29 0 51 c0 50 2 54 68 122 l67 70 -70 -67 -71 -68
-91 0 c-66 0 -102 5 -128 17 l-35 17 52 53 53 54 145 -3 145 -3 2 -157z m928
82 l-69 -70 -145 0 -145 0 69 70 69 70 145 0 145 0 -69 -70z m290 0 l-69 -70
-140 0 -140 0 69 70 69 70 140 0 140 0 -69 -70z m300 0 l-69 -70 -145 0 -145
0 69 70 69 70 145 0 145 0 -69 -70z m295 44 c-191 -109 -203 -114 -281 -114
l-73 0 69 70 69 70 131 0 130 0 -45 -26z m-2341 -31 c141 -76 144 -71 -45 -72
l-169 -2 60 61 c33 33 61 60 64 60 2 0 43 -21 90 -47z m2411 -100 l-1 -128
-64 -70 -64 -70 -1 140 0 140 54 58 c30 31 59 57 65 57 7 0 11 -42 11 -127z
m-101 51 c-29 -29 -42 -35 -69 -32 -33 3 -33 3 31 39 35 19 66 34 69 32 2 -2
-12 -20 -31 -39z m-2539 -179 l0 -145 -145 0 -145 0 0 145 0 145 145 0 145 0
0 -145z m310 0 l0 -145 -150 0 -150 0 0 145 0 145 150 0 150 0 0 -145z m185
82 l110 -63 3 -82 3 -82 -146 0 -145 0 0 145 0 145 33 -1 c20 0 72 -23 142
-62z m115 18 l0 -45 -37 19 c-21 10 -58 31 -83 45 l-45 26 83 0 82 0 0 -45z
m1000 -105 l0 -140 -145 0 -145 0 0 140 0 140 145 0 145 0 0 -140z m290 15 l0
-124 -30 -16 c-21 -11 -60 -15 -140 -15 l-110 0 0 140 0 140 140 0 140 0 0
-125z m298 83 c-3 -40 -6 -44 -68 -80 -76 -43 -92 -47 -62 -15 23 25 29 61 11
72 -16 11 -59 -4 -59 -20 0 -8 5 -15 10 -15 6 0 10 5 10 10 0 6 7 10 15 10 22
0 18 -24 -6 -46 -12 -10 -25 -29 -30 -41 -4 -12 -31 -34 -59 -48 l-50 -25 0
120 0 120 146 0 145 0 -3 -42z m87 7 c-33 -19 -63 -35 -67 -35 -5 0 -8 16 -8
35 l0 35 68 0 67 0 -60 -35z m215 -105 l0 -140 -145 0 -145 0 0 84 0 84 98 55
c79 45 106 56 145 56 l47 1 0 -140z m-303 -137 c-2 -2 -67 -2 -143 -1 l-139 3
140 77 140 77 3 -76 c2 -41 1 -77 -1 -80z m-1526 125 c22 -12 39 -24 39 -28 0
-3 -20 -26 -45 -50 l-45 -44 0 72 c0 40 3 72 6 72 4 0 24 -10 45 -22z m89
-166 l0 -118 -70 -69 -70 -69 0 144 0 144 52 53 c42 43 55 50 70 42 16 -9 18
-23 18 -127z m335 -70 c143 -79 264 -146 268 -149 7 -4 -537 -313 -580 -330
-10 -4 -13 65 -13 326 l0 332 33 -17 c17 -10 149 -82 292 -162z m-1095 -47 l0
-145 -145 0 -145 0 0 145 0 145 145 0 145 0 0 -145z m310 0 l0 -145 -150 0
-150 0 0 145 0 145 150 0 150 0 0 -145z m300 0 l0 -145 -145 0 -145 0 0 145 0
145 145 0 145 0 0 -145z m80 -370 l-70 -70 0 145 0 144 68 69 67 68 3 -143 3
-142 -71 -71z m-690 70 l0 -145 -145 0 -145 0 0 145 0 145 145 0 145 0 0 -145z
m310 0 l0 -145 -150 0 -150 0 0 145 0 145 150 0 150 0 0 -145z m300 0 l0 -145
-145 0 -145 0 0 145 0 145 145 0 145 0 0 -145z m138 -150 c-7 -7 -39 -26 -70
-44 l-58 -31 0 37 c0 33 8 46 68 106 l67 68 3 -62 c2 -42 -1 -66 -10 -74z
m-748 -150 l0 -145 -145 0 -145 0 0 145 0 145 145 0 145 0 0 -145z m308 23
l-3 -122 -40 -23 c-35 -20 -54 -23 -147 -23 l-108 0 0 145 0 145 150 0 151 0
-3 -122z m302 85 c0 -32 -5 -41 -31 -56 -30 -17 -31 -17 -49 5 -26 32 -54 14
-58 -36 -2 -20 -7 -36 -13 -36 -8 0 -11 8 -13 54 -1 23 -28 41 -50 33 -24 -10
-20 -30 5 -22 18 6 20 4 14 -14 -4 -12 -2 -21 4 -21 6 0 11 -9 11 -20 0 -23
-10 -26 -28 -8 -16 16 -28 2 -13 -16 11 -13 7 -19 -21 -36 -18 -11 -36 -20
-40 -20 -5 0 -8 52 -8 115 l0 115 145 0 145 0 0 -37z m81 -177 l-71 -71 0 90
0 91 68 36 67 37 3 -56 3 -57 -70 -70z m-171 105 c0 -10 -7 -21 -15 -25 -15
-5 -22 24 -8 37 12 13 23 7 23 -12z m90 -91 l0 -90 -145 0 c-83 0 -145 4 -145
9 0 15 152 95 177 93 13 -1 28 7 37 20 12 17 63 58 74 58 1 0 2 -40 2 -90z"/>
<path d="M132 1368 c-7 -7 -12 -29 -12 -49 0 -73 62 -78 68 -5 5 54 -26 84
-56 54z m38 -49 c0 -28 -4 -39 -12 -37 -24 8 -22 78 2 78 5 0 10 -18 10 -41z"/>
<path d="M432 1368 c-7 -7 -12 -29 -12 -49 0 -73 62 -78 68 -5 5 54 -26 84
-56 54z m38 -49 c0 -28 -4 -39 -12 -37 -24 8 -22 78 2 78 5 0 10 -18 10 -41z"/>
<path d="M732 1368 c-7 -7 -12 -29 -12 -49 0 -73 62 -78 68 -5 5 54 -26 84
-56 54z m38 -49 c0 -28 -4 -39 -12 -37 -24 8 -22 78 2 78 5 0 10 -18 10 -41z"/>
<path d="M1732 1368 c-7 -7 -12 -29 -12 -49 0 -73 62 -78 68 -5 5 54 -26 84
-56 54z m38 -49 c0 -28 -4 -39 -12 -37 -24 8 -22 78 2 78 5 0 10 -18 10 -41z"/>
<path d="M2038 1361 c-22 -22 -23 -35 -3 -27 12 4 15 -3 15 -34 0 -29 4 -40
15 -40 12 0 15 13 15 60 0 64 -10 74 -42 41z"/>
<path d="M2617 1373 c-14 -14 -6 -24 14 -18 18 6 20 4 14 -14 -4 -12 -2 -21 4
-21 6 0 11 -9 11 -20 0 -23 -10 -26 -28 -8 -6 6 -15 8 -19 5 -13 -14 24 -39
46 -32 18 5 21 13 18 48 -1 23 -6 48 -10 55 -9 13 -39 16 -50 5z"/>
<path d="M1280 945 c0 -8 -7 -15 -15 -15 -8 0 -15 -4 -15 -10 0 -5 7 -10 15
-10 8 0 15 -7 15 -15 0 -8 9 -15 20 -15 11 0 20 7 20 15 0 8 7 15 15 15 8 0
15 5 15 10 0 6 -7 10 -15 10 -8 0 -15 7 -15 15 0 8 -9 15 -20 15 -11 0 -20 -7
-20 -15z"/>
<path d="M88 1061 c-22 -22 -23 -35 -3 -27 12 4 15 -3 15 -34 0 -29 4 -40 15
-40 12 0 15 13 15 60 0 64 -10 74 -42 41z"/>
<path d="M172 1068 c-7 -7 -12 -29 -12 -49 0 -73 62 -78 68 -5 5 54 -26 84
-56 54z m38 -49 c0 -28 -4 -39 -12 -37 -24 8 -22 78 2 78 5 0 10 -18 10 -41z"/>
<path d="M398 1061 c-22 -22 -23 -35 -3 -27 12 4 15 -3 15 -34 0 -29 4 -40 15
-40 12 0 15 13 15 60 0 64 -10 74 -42 41z"/>
<path d="M472 1068 c-7 -7 -12 -29 -12 -49 0 -73 62 -78 68 -5 5 54 -26 84
-56 54z m38 -49 c0 -28 -4 -39 -12 -37 -24 8 -22 78 2 78 5 0 10 -18 10 -41z"/>
<path d="M698 1061 c-22 -22 -23 -35 -3 -27 12 4 15 -3 15 -34 0 -29 4 -40 15
-40 12 0 15 13 15 60 0 64 -10 74 -42 41z"/>
<path d="M782 1068 c-7 -7 -12 -29 -12 -49 0 -73 62 -78 68 -5 5 54 -26 84
-56 54z m38 -49 c0 -28 -4 -39 -12 -37 -24 8 -22 78 2 78 5 0 10 -18 10 -41z"/>
<path d="M83 774 c-15 -7 -17 -34 -3 -34 6 0 10 5 10 10 0 6 7 10 15 10 23 0
18 -24 -10 -50 -35 -33 -32 -50 10 -50 19 0 35 5 35 10 0 6 -10 10 -22 10
l-21 0 22 24 c39 42 14 91 -36 70z"/>
<path d="M172 768 c-7 -7 -12 -29 -12 -49 0 -73 62 -78 68 -5 5 54 -26 84 -56
54z m38 -49 c0 -28 -4 -39 -12 -37 -24 8 -22 78 2 78 5 0 10 -18 10 -41z"/>
<path d="M393 773 c-15 -6 -17 -33 -3 -33 6 0 10 5 10 10 0 6 7 10 15 10 23 0
18 -24 -10 -50 -35 -33 -32 -50 10 -50 19 0 35 5 35 10 0 6 -9 10 -21 10 -20
0 -20 0 3 28 l23 29 5 -30 c12 -70 73 -56 68 16 -4 50 -28 69 -56 44 -17 -16
-20 -16 -25 -2 -6 15 -30 18 -54 8z m117 -54 c0 -28 -4 -39 -12 -37 -24 8 -22
78 2 78 5 0 10 -18 10 -41z"/>
<path d="M693 774 c-15 -7 -17 -34 -3 -34 6 0 10 5 10 10 0 6 7 10 15 10 23 0
18 -24 -10 -50 -35 -33 -32 -50 10 -50 19 0 35 5 35 10 0 6 -10 10 -22 10
l-21 0 22 24 c39 42 14 91 -36 70z"/>
<path d="M782 768 c-7 -7 -12 -29 -12 -49 0 -73 62 -78 68 -5 5 54 -26 84 -56
54z m38 -49 c0 -28 -4 -39 -12 -37 -24 8 -22 78 2 78 5 0 10 -18 10 -41z"/>
<path d="M77 473 c-14 -14 -6 -24 14 -18 18 6 20 4 14 -14 -4 -12 -2 -21 4
-21 6 0 11 -9 11 -20 0 -23 -10 -26 -28 -8 -6 6 -15 8 -19 5 -13 -14 24 -39
46 -32 18 5 21 13 18 48 -1 23 -6 48 -10 55 -9 13 -39 16 -50 5z"/>
<path d="M172 468 c-7 -7 -12 -29 -12 -49 0 -73 62 -78 68 -5 5 54 -26 84 -56
54z m38 -49 c0 -28 -4 -39 -12 -37 -24 8 -22 78 2 78 5 0 10 -18 10 -41z"/>
<path d="M387 473 c-14 -14 -6 -24 14 -18 18 6 20 4 14 -14 -4 -12 -2 -21 4
-21 6 0 11 -9 11 -20 0 -23 -10 -26 -28 -8 -6 6 -15 8 -19 5 -13 -14 24 -39
46 -32 18 5 21 13 18 48 -1 23 -6 48 -10 55 -9 13 -39 16 -50 5z"/>
<path d="M472 468 c-7 -7 -12 -29 -12 -49 0 -73 62 -78 68 -5 5 54 -26 84 -56
54z m38 -49 c0 -28 -4 -39 -12 -37 -24 8 -22 78 2 78 5 0 10 -18 10 -41z"/>
<path d="M3410 1010 c0 -5 20 -10 45 -10 25 0 45 5 45 10 0 6 -20 10 -45 10
-25 0 -45 -4 -45 -10z"/>
<path d="M3410 980 c0 -5 20 -10 45 -10 25 0 45 5 45 10 0 6 -20 10 -45 10
-25 0 -45 -4 -45 -10z"/>
</g>
</svg>
